{"asset":{"version":"2.0","generator":"ChatGPT pastry block"},"buffers":[{"byteLength":648,"uri":"data:application/octet-stream;base64,"}],"bufferViews":[{"buffer":0,"byteOffset":0,"byteLength":288,"target":34962},{"buffer":0,"byteOffset":288,"byteLength":288,"target":34962},{"buffer":0,"byteOffset":576,"byteLength":72,"target":34963}],"accessors":[{"bufferView":0,"componentType":5126,"count":24,"type":"VEC3","min":[-0.04,0.0,-0.04],"max":[0.04,0.03,0.04]},{"bufferView":1,"componentType":5126,"count":24,"type":"VEC3"},{"bufferView":2,"componentType":5123,"count":36,"type":"SCALAR","max":[23],"min":[0]}],"materials":[{"pbrMetallicRoughness":{"baseColorFactor":[0.45,0.25,0.12,1.0],"metallicFactor":0.2,"roughnessFactor":0.8},"doubleSided":true,"name":"brownie"}],"meshes":[{"primitives":[{"attributes":{"POSITION":0,"NORMAL":1},"indices":2,"mode":4,"material":0}],"name":"pastry_block"}],"nodes":[{"mesh":0,"name":"pastry_node"}],"scenes":[{"nodes":[0],"name":"Scene"}],"scene":0}
